PathFileType	4	(X/Y/Z)	E:\Qualisys_Data\Carbon_Farble_Plate\Data\Amateur_Runner\S14\T3\S14T3V13_c3d.trc
DataRate	CameraRate	NumFrames	NumMarkers	Units	OrigDataRate	OrigDataStartFrame	OrigNumFrames
200.000000	200.000000	4	39	mm	200.000000	294	336
Frame#	Time	LSHO			RSHO			LICST			RICST			LASIS			LHEEL			RASIS			LTROC			RTROC			SACR			LTH1			LSK4			LTH2			LTH3			RHM5			LSK2			LTH4			RTH1			LTOE			RTH2			RTH3			RTH4			LLEP			RLEP			LSK1			LSK3			RSK1			LHM5			RSK2			LFT1			RSK3			RSK4			LLME			RLME			RTOE			RHEEL			RFT1			RFT2			LFT2			
		X1	Y1	Z1	X2	Y2	Z2	X3	Y3	Z3	X4	Y4	Z4	X5	Y5	Z5	X6	Y6	Z6	X7	Y7	Z7	X8	Y8	Z8	X9	Y9	Z9	X10	Y10	Z10	X11	Y11	Z11	X12	Y12	Z12	X13	Y13	Z13	X14	Y14	Z14	X15	Y15	Z15	X16	Y16	Z16	X17	Y17	Z17	X18	Y18	Z18	X19	Y19	Z19	X20	Y20	Z20	X21	Y21	Z21	X22	Y22	Z22	X23	Y23	Z23	X24	Y24	Z24	X25	Y25	Z25	X26	Y26	Z26	X27	Y27	Z27	X28	Y28	Z28	X29	Y29	Z29	X30	Y30	Z30	X31	Y31	Z31	X32	Y32	Z32	X33	Y33	Z33	X34	Y34	Z34	X35	Y35	Z35	X36	Y36	Z36	X37	Y37	Z37	X38	Y38	Z38	X39	Y39	Z39	

295	1.47	1809.346313476562	1399.315185546875	-500.8906860351562	1771.591552734375	1415.659545898438	-199.5973052978516	1747.364868164062	960.5571899414062	-471.6571960449219	1771.911010742188	963.2636108398438	-193.525146484375	1787.909057617188	910.187744140625	-450.0876159667969	1344.540161132812	141.2626800537109	-334.907958984375	1798.911010742188	921.10888671875	-215.2689971923828	1646.366333007812	846.8024291992188	-487.2113952636719	1675.116821289062	837.0361938476562	-156.2510681152344	1617.8916015625	961.6311645507812	-337.1437377929688	1696.679077148438	611.574462890625	-481.9046325683594	1489.53466796875	311.9501342773438	-421.4306335449219	1621.315795898438	619.220458984375	-462.8640747070312	1697.605346679688	515.5516357421875	-456.9638671875	1759.095092773438	112.7888946533203	-155.7071990966797	1547.994018554688	388.2130126953125	-444.8654479980469	1618.67431640625	522.9985961914062	-441.3716430664062	1904.102661132812	701.2311401367188	-165.6504364013672	1579.18115234375	48.05264282226562	-365.4223937988281	1838.0458984375	662.041015625	-150.6263275146484	1956.249633789062	617.83837890625	-188.2924346923828	1886.474365234375	573.9838256835938	-166.2898559570312	1637.150756835938	443.5844421386719	-449.6314392089844	1930.997924804688	529.1083984375	-174.6958160400391	1615.083984375	340.0961303710938	-440.4911804199219	1552.969360351562	261.4373779296875	-420.0762634277344	1895.963012695312	420.54052734375	-171.2142181396484	1507.326171875	50.54115676879883	-425.001953125	1826.175659179688	470.2252807617188	-170.2099304199219	1347.790283203125	111.1549987792969	-305.7586364746094	1830.465942382812	340.46044921875	-181.9740142822266	1770.556640625	391.5792846679688	-179.1886138916016	1412.917236328125	148.6191558837891	-394.5590209960938	1690.709106445312	237.2378540039062	-192.669677734375	1823.455200195312	76.24359893798828	-221.5465850830078	1626.686157226562	242.4844970703125	-248.2463989257812	1618.189575195312	210.9983062744141	-274.5964660644531	1610.991333007812	227.5325927734375	-224.1555328369141	1334.326904296875	110.8104019165039	-357.5923461914062
296	1.475	1826.55615234375	1404.56298828125	-499.3579406738281	1785.123291015625	1419.538452148438	-198.9120635986328	1764.640502929688	963.8289794921876	-471.0748291015625	1787.26708984375	968.00146484375	-193.2077941894531	1804.572265625	913.5161743164062	-449.4065551757812	1350.166748046875	148.3769683837891	-337.0237731933594	1815.599487304688	925.9154052734376	-215.2379608154297	1662.189331054688	851.1266479492188	-487.6242980957031	1691.713134765625	841.7420043945312	-155.7632598876953	1634.498413085938	965.3662719726562	-337.9273681640625	1707.812866210938	615.2950439453125	-482.1909484863281	1495.86865234375	317.9687805175781	-422.236083984375	1632.737915039062	624.6263427734375	-462.2746887207031	1707.003662109375	519.1627807617188	-457.2899475097656	1793.824829101562	109.1463394165039	-155.8257293701172	1554.978393554688	394.229248046875	-445.5819396972656	1628.224853515625	528.2955932617188	-441.3737182617188	1921.056884765625	705.8833618164062	-165.9430541992188	1581.0185546875	47.18864059448242	-366.307861328125	1854.944213867188	667.039794921875	-150.966796875	1973.35546875	622.8397216796875	-188.5962371826172	1903.606323242188	578.6627197265625	-166.3076934814453	1644.798217773438	448.8760375976562	-450.2241821289062	1948.177856445312	533.4027099609375	-174.8310699462891	1621.6181640625	345.1292114257812	-441.8283996582031	1558.981201171875	266.8044738769531	-421.2049255371094	1916.528930664062	422.5942993164062	-171.3280181884766	1509.14794921875	51.87469863891602	-426.3785705566406	1844.162963867188	469.0659484863281	-170.2923431396484	1352.46533203125	118.7369232177734	-307.4739685058594	1854.908447265625	339.9769592285156	-181.9328308105469	1792.770629882812	387.6138610839844	-179.7010955810547	1418.392944335938	154.0708923339844	-395.86865234375	1719.880493164062	230.4600830078125	-193.5171051025391	1860.059204101562	75.8321762084961	-221.3077087402344	1655.47216796875	232.0969696044922	-249.0282592773438	1649.646240234375	200.3395233154297	-276.0160522460938	1640.471557617188	216.5092926025391	-225.3334197998047	1339.222900390625	118.2512664794922	-359.0785522460938
297	1.48	1843.47705078125	1409.50390625	-498.0185241699219	1798.745483398438	1423.537109375	-198.6361999511719	1781.939453125	967.2337646484376	-470.7361145019531	1802.58935546875	972.7353515625	-192.516357421875	1821.804565429688	917.0	-448.7070617675781	1356.810302734375	155.7222595214844	-337.851318359375	1831.763427734375	931.2233276367188	-214.9020233154297	1678.168823242188	855.357421875	-486.7815856933594	1708.35302734375	846.5634155273438	-155.1600646972656	1650.9677734375	969.0664672851562	-338.39306640625	1719.523071289062	619.439453125	-481.8535461425781	1502.800659179688	324.2340393066406	-423.1051940917969	1644.067504882812	629.9393310546875	-462.1582641601562	1716.802124023438	523.27392578125	-457.023193359375	1828.460571289062	105.9221115112305	-156.4768676757812	1562.409423828125	399.7851257324219	-446.1897583007812	1637.573120117188	533.5623779296875	-441.4086303710938	1937.73046875	710.8864135742188	-165.7293853759766	1582.770874023438	46.82681655883789	-367.0805358886719	1871.294677734375	671.5025634765625	-150.6638946533203	1989.66357421875	627.172119140625	-188.8835144042969	1919.801879882812	583.1185913085938	-167.0787506103516	1652.837646484375	453.7278747558594	-450.5602111816406	1964.992797851562	537.3882446289062	-176.0198516845703	1628.343627929688	350.0542297363281	-442.6844482421875	1565.125244140625	272.2503356933594	-422.9004211425781	1936.856201171875	424.1065063476562	-171.3503112792969	1511.73095703125	52.34008026123047	-427.6576538085938	1862.13427734375	467.3157043457031	-170.7914123535156	1357.894897460938	126.7791976928711	-308.6730651855469	1878.939453125	338.8658752441406	-182.4663391113281	1814.646118164062	383.7729797363281	-180.6371459960938	1424.558715820312	159.6148071289062	-397.0609130859375	1748.909423828125	223.4547882080078	-194.1001586914062	1896.828735351562	75.52393341064453	-221.1951293945312	1685.483764648438	221.8888549804688	-250.3410339355469	1680.738647460938	189.7720947265625	-277.0011291503906	1670.649169921875	205.6373901367188	-226.2919616699219	1344.854614257812	126.3870849609375	-360.3946838378906
298	1.485	1860.244873046875	1414.535888671875	-496.5655822753906	1812.204833984375	1427.3896484375	-198.2783508300781	1799.168090820312	970.388916015625	-469.8217468261719	1818.050170898438	977.461181640625	-192.1591033935547	1838.814575195312	920.659912109375	-448.2756042480469	1363.879516601562	163.6928253173828	-339.5232543945312	1847.718505859375	936.2889404296876	-214.1366271972656	1693.936645507812	859.47607421875	-486.4294128417969	1724.989013671875	851.3062133789062	-154.4047698974609	1667.609619140625	972.9874267578124	-338.6595458984375	1730.815185546875	623.3922119140625	-482.2706909179688	1510.064819335938	330.2126159667969	-424.234619140625	1655.977172851562	635.2939453125	-461.4635620117188	1726.633911132812	527.2752075195312	-457.3408508300781	1863.898071289062	102.6960678100586	-156.5576171875	1570.093139648438	405.6700439453125	-446.7549743652344	1647.523803710938	539.1830444335938	-441.4425048828125	1954.469970703125	714.6532592773438	-166.1511535644531	1585.5546875	46.17258071899414	-368.4263000488281	1887.975830078125	675.6701049804688	-151.3314056396484	2005.829956054688	630.8223266601562	-189.2058410644531	1935.828369140625	587.0977783203125	-167.7334747314453	1661.0791015625	459.0315856933594	-451.1956176757812	1980.931030273438	540.663818359375	-176.3119812011719	1635.988891601562	355.6656799316406	-443.3907165527344	1572.282836914062	277.8848266601562	-424.3127136230469	1956.922729492188	425.9588928222656	-171.5205535888672	1514.158935546875	53.03664016723633	-428.3777770996094	1880.476440429688	465.30810546875	-170.9832153320312	1364.158203125	135.3230743408203	-309.9561157226562	1903.306030273438	337.4442749023438	-182.4482727050781	1836.478515625	379.328369140625	-181.1177215576172	1431.183715820312	164.9939880371094	-398.6859436035156	1778.391723632812	216.3478546142578	-194.6409149169922	1933.49853515625	75.83456420898438	-221.7148895263672	1715.250610351562	211.8854522705078	-250.9366912841797	1712.522583007812	179.6911773681641	-277.8766479492188	1701.520141601562	194.9304351806641	-227.2727661132812	1350.750610351562	134.7987365722656	-361.5811767578125
